<svg xmlns="http://www.w3.org/2000/svg" width="1600" height="1000" viewBox="0 0 1600 1000">
<rect width="100%" height="100%" fill="#FFFFFF"/>
<g font-family="Microsoft YaHei, PingFang SC, Noto Sans CJK SC, sans-serif">
<text x="799.43" y="500.03" font-size="96" fill="#1565C0">浙江省</text>
<text x="801.97" y="573.67" font-size="70" fill="#2E7D32">科技</text>
<text x="790.95" y="396.32" font-size="64" fill="#EF6C00">创新</text>
<text x="676.13" y="517.44" font-size="64" fill="#6A1B9A">工业</text>
<text x="805.27" y="633.94" font-size="51" fill="#00838F">制造业</text>
<text x="936.88" y="581.96" font-size="45" fill="#C62828">企业技术中心</text>
<text x="655.22" y="576.94" font-size="45" fill="#455A64">技术中心</text>
<text x="671.37" y="427.34" font-size="45" fill="#1565C0">上海市</text>
<text x="916.74" y="373.73" font-size="39" fill="#2E7D32">示范企业</text>
<text x="682.86" y="624.09" font-size="39" fill="#EF6C00">研究中心</text>
<text x="791.83" y="675.24" font-size="39" fill="#6A1B9A">江苏省</text>
<text x="751.37" y="328.99" font-size="32" fill="#00838F">高新技术企业</text>
<text x="949.13" y="534.02" font-size="32" fill="#C62828">瞪羚企业</text>
<text x="699.28" y="369.79" font-size="32" fill="#455A64">广东省</text>
<text x="969.60" y="623.55" font-size="32" fill="#1565C0">重庆市</text>
<text x="922.47" y="675.29" font-size="26" fill="#2E7D32">技术创新奖</text>
<text x="776.95" y="710.54" font-size="26" fill="#EF6C00">单项冠军</text>
<text x="889.90" y="312.88" font-size="26" fill="#6A1B9A">科学技术奖</text>
<text x="589.44" y="516.14" font-size="26" fill="#00838F">百强企业</text>
<text x="733.06" y="653.96" font-size="26" fill="#C62828">品牌</text>
<text x="704.79" y="684.65" font-size="26" fill="#455A64">苏州市</text>
<text x="744.73" y="292.29" font-size="20" fill="#1565C0">工程技术研究中心</text>
<text x="611.74" y="449.25" font-size="20" fill="#2E7D32">企业研究院</text>
<text x="649.16" y="647.04" font-size="20" fill="#EF6C00">科技进步奖</text>
<text x="625.68" y="376.48" font-size="20" fill="#6A1B9A">独角兽企业</text>
<text x="688.40" y="332.34" font-size="20" fill="#00838F">知识产权</text>
<text x="857.24" y="701.49" font-size="20" fill="#C62828">工业设计中心</text>
<text x="763.35" y="735.05" font-size="20" fill="#455A64">质量检验检测中心</text>
<text x="596.59" y="593.43" font-size="20" fill="#1565C0">安徽省</text>
<text x="741.84" y="449.06" font-size="14" fill="#2E7D32">专精特新</text>
<text x="671.14" y="307.27" font-size="14" fill="#EF6C00">绿色工厂</text>
<text x="688.11" y="443.70" font-size="14" fill="#6A1B9A">示范单位</text>
<text x="823.96" y="269.56" font-size="14" fill="#00838F">智能制造</text>
<text x="686.25" y="706.84" font-size="14" fill="#C62828">重点实验室</text>
<text x="986.32" y="638.45" font-size="14" fill="#455A64">博士后科研工作站</text>
<text x="631.91" y="465.07" font-size="14" fill="#1565C0">隐形冠军</text>
<text x="576.41" y="427.93" font-size="14" fill="#2E7D32">创新企业</text>
<text x="614.59" y="348.63" font-size="14" fill="#EF6C00">无锡市</text>
</g>
</svg>